<svg width="14" height="21" viewBox="0 0 14 21" fill="none" xmlns="http://www.w3.org/2000/svg">
<path d="M11.5991 7.17018C11.5953 7.16349 11.5953 7.15648 11.5912 7.14979C11.5867 7.14342 11.5796 7.13992 11.5747 7.13387C11.1954 6.58148 10.7467 6.06763 10.2372 5.60189L11.0431 4.91794L11.5736 5.36839L13.165 4.01672L11.5736 2.66538L9.98175 4.01672L10.5126 4.46749L9.70675 5.15145C9.15826 4.71884 8.55349 4.33752 7.90257 4.01545C7.89544 4.01131 7.89132 4.00525 7.88381 4.00143C7.87593 3.99761 7.86768 3.99793 7.8598 3.99442C6.69941 3.42674 5.3957 3.04861 4.00571 2.91003V2.53062H4.56846C5.08581 2.53062 5.50638 2.17351 5.50638 1.73421C5.50638 1.29491 5.08544 0.937805 4.56808 0.937805H1.19158C0.674222 0.937805 0.25366 1.29491 0.25366 1.73421C0.25366 2.17351 0.674222 2.53062 1.19158 2.53062H1.75433V2.89888C1.34915 2.93552 0.944718 2.99158 0.54479 3.06931C0.34295 3.1085 0.216519 3.27957 0.26304 3.45095C0.309185 3.62234 0.51065 3.73001 0.71249 3.69019C1.05764 3.62298 1.40617 3.57233 1.75545 3.53824L2.15801 3.5118C2.28106 3.50383 2.39436 3.4981 2.50466 3.49364V4.12344C2.50466 4.29961 2.67236 4.442 2.87983 4.442C3.0873 4.442 3.255 4.29961 3.255 4.12344V3.49587C4.666 3.55098 5.9956 3.87273 7.17775 4.40218L6.80783 4.94597C6.70429 5.09856 6.76582 5.29321 6.94515 5.38113C7.00405 5.41012 7.06857 5.42382 7.13235 5.42382C7.26216 5.42382 7.38822 5.36679 7.45762 5.26454L7.82641 4.72202C9.00031 5.35437 9.99751 6.20111 10.7422 7.1979L10.1033 7.51105C9.92435 7.59897 9.86282 7.79361 9.96674 7.9462C10.0365 8.04846 10.1622 8.10548 10.292 8.10548C10.3558 8.10548 10.4203 8.09179 10.4792 8.0628L11.1196 7.74869C11.7518 8.76682 12.1318 9.91429 12.1885 11.1315H11.4475C11.2401 11.1315 11.0724 11.2739 11.0724 11.4501C11.0724 11.6262 11.2401 11.7686 11.4475 11.7686H12.1885C12.1318 12.9859 11.7518 14.1333 11.1196 15.1515L10.4792 14.8374C10.2999 14.7494 10.0703 14.8011 9.96674 14.954C9.8632 15.1066 9.92472 15.3012 10.1041 15.3891L10.743 15.7023C9.99826 16.6991 9.00106 17.5458 7.82716 18.1781L7.45837 17.6356C7.35445 17.4827 7.12447 17.4308 6.9459 17.519C6.76619 17.607 6.70466 17.8019 6.80858 17.9542L7.1785 18.498C5.99635 19.0274 4.66675 19.3492 3.25575 19.4043V18.7774C3.25575 18.6012 3.08805 18.4588 2.88058 18.4588C2.67311 18.4588 2.50541 18.6012 2.50541 18.7774V19.4068C1.90627 19.3893 1.30525 19.3256 0.713615 19.2103C0.511775 19.1692 0.31031 19.2781 0.264164 19.4495C0.217644 19.6209 0.344076 19.792 0.545916 19.8312C1.29475 19.9777 2.05972 20.0516 2.81868 20.0516C2.83706 20.0516 2.8547 20.0507 2.87308 20.0503C2.8757 20.0503 2.87758 20.0516 2.87983 20.0516C2.88283 20.0516 2.88546 20.05 2.88846 20.05C4.69189 20.0395 6.38389 19.626 7.8478 18.9118C7.85943 18.9073 7.87181 18.9051 7.88306 18.8994C7.89057 18.8956 7.89469 18.8895 7.90182 18.8854C9.41712 18.1355 10.6833 17.0616 11.5683 15.7759C11.5755 15.7673 11.5845 15.7606 11.5908 15.751C11.5953 15.7443 11.595 15.7373 11.5987 15.7306C12.4556 14.4691 12.9482 13.0082 12.9482 11.4504C12.9482 9.89263 12.4556 8.43169 11.5991 7.17018ZM11.5732 3.56627L12.1037 4.01672L11.5732 4.46749L11.0423 4.01672L11.5732 3.56627ZM2.50466 2.85588V1.8935H1.19158C1.08841 1.8935 1.00399 1.82182 1.00399 1.73421C1.00399 1.64661 1.08841 1.57493 1.19158 1.57493H4.56808C4.67126 1.57493 4.75567 1.64661 4.75567 1.73421C4.75567 1.82182 4.67126 1.8935 4.56808 1.8935H3.255V2.85588C3.12444 2.85142 2.99988 2.84919 2.87983 2.84919C2.86933 2.84919 2.85732 2.84982 2.84682 2.84982C2.83744 2.84982 2.82806 2.84919 2.81868 2.84919C2.75715 2.84919 2.69562 2.85269 2.6341 2.85365C2.59058 2.8546 2.54968 2.85428 2.50466 2.85588Z" fill="#21406C"/>
</svg>
